# Blender v2.66 (sub 1) OBJ File: ''
# www.blender.org
v 0.133620 0.002917 0.133620
v -0.133620 0.002917 -0.133619
v -0.133620 0.746335 -0.133619
v -0.133620 0.002917 0.133620
v 0.133620 0.002917 -0.133619
v 0.133620 0.746335 -0.133619
v 0.000000 0.746335 0.188967
v 0.000000 0.002917 0.188967
v 0.000000 0.002917 -0.188967
v -0.188967 0.002917 0.000000
v 0.188967 0.002917 0.000000
v 0.188967 0.746335 0.000000
v 0.133620 0.746335 0.133620
v -0.133620 0.746335 0.133620
v 0.000000 0.746335 -0.188966
v -0.188967 0.746335 0.000000
vt 0.012116 0.004883
vt 0.997062 0.012879
vt 0.992120 0.990234
vt 0.020527 0.007764
vt 0.992360 0.011859
vt 1.004883 0.985090
vt 0.024414 0.989475
vt 0.020993 0.012750
vt 0.988813 0.013671
vt 0.017783 0.011940
vt 0.991369 0.003994
vt 1.002364 0.988122
vt 0.013822 0.995578
vt 0.029700 0.986415
vt 0.996241 0.989468
vt 0.025990 0.990329
vn 0.707083 0.000000 -0.707083
vn 0.707083 0.000000 0.707083
vn 0.999969 0.000000 0.000000
vn 1.000000 0.000000 0.000000
vn 0.000000 0.000000 1.000000
s 1
f 1/1/1 2/2/1 3/3/1
f 4/4/2 5/5/2 6/6/2
f 7/7/3 8/8/4 9/9/3
f 10/10/5 11/11/5 12/12/5
f 13/13/1 1/1/1 3/3/1
f 14/14/2 4/4/2 6/6/2
f 15/15/4 7/7/3 9/9/3
f 16/16/5 10/10/5 12/12/5
